<svg width="118" height="28" viewBox="0 0 118 28" fill="none" xmlns="http://www.w3.org/2000/svg">
<path d="M29.5482 1.13538C31.5197 1.13538 33.4079 1.13538 35.3666 1.13538C35.3666 3.69575 35.3666 6.21773 35.3666 8.61168C36.9541 8.33644 38.4839 7.87557 40.0201 7.83717C44.2959 7.73475 47.7525 9.4374 49.884 13.2204C52.4316 17.733 50.9593 23.1802 46.5875 26.0927C41.0827 29.754 33.6 27.9361 30.5019 22.1753C29.7658 20.8055 29.497 19.3077 29.4906 17.7714C29.4714 12.4587 29.4842 7.14586 29.4842 1.83308C29.4842 1.60905 29.5226 1.38501 29.5482 1.13538ZM45.1985 17.9891C45.2881 15.4671 43.0926 13.214 40.4554 13.1243C37.9014 13.0347 35.4754 15.1727 35.3858 17.5922C35.2834 20.3126 37.4085 22.5593 40.1801 22.6554C42.8109 22.7386 45.1025 20.6135 45.1985 17.9891Z" fill="white"/>
<path d="M89.9988 8.85486C89.9988 6.21127 89.9988 3.6893 89.9988 1.14172C91.9703 1.14172 93.8586 1.14172 95.7661 1.14172C95.8045 1.27614 95.8557 1.37216 95.8557 1.46817C95.8557 7.0498 95.9069 12.6314 95.8301 18.213C95.7789 21.9576 93.8202 24.6396 90.6645 26.5023C85.6142 29.4787 78.7972 27.8401 75.6991 22.9241C72.3834 17.6626 75.0974 10.4935 81.1719 8.458C84.0971 7.47866 86.984 7.59388 89.9988 8.85486ZM85.0893 13.1179C82.4969 13.1115 80.1222 15.3646 80.1414 17.8098C80.1606 20.4598 82.4265 22.6681 85.1021 22.6489C87.7649 22.6297 89.9604 20.4726 89.9988 17.8354C90.0372 15.3838 87.6817 13.1243 85.0893 13.1179Z" fill="white"/>
<path d="M63.2749 7.75391C66.7826 7.89473 70.1623 9.43736 72.2362 13.1179C74.6685 17.4321 73.5612 22.4569 69.6502 25.6061C64.3438 29.8692 56.1954 28.2433 52.9629 22.2777C50.5114 17.7586 52.3036 11.9273 56.9443 9.27733C58.7174 8.25958 60.6249 7.76031 63.2749 7.75391ZM62.7116 22.6297C65.4256 22.6041 67.6147 20.4278 67.6083 17.7586C67.6019 15.2622 65.2976 13.0859 62.6668 13.0923C60.0424 13.0987 57.77 15.2878 57.7828 17.8034C57.7957 20.479 60.0168 22.6553 62.7116 22.6297Z" fill="white"/>
<path d="M117.222 18.5075C112.313 18.5075 107.378 18.5075 102.366 18.5075C102.654 20.287 103.614 21.4199 105.073 22.1561C106.731 22.9882 108.222 22.6809 110.565 21.0743C111.589 22.5337 112.607 23.9931 113.625 25.4461C110.956 28.1217 105.265 29.0755 100.874 25.9774C96.8352 23.129 95.5038 17.701 97.8081 13.2139C100.119 8.72047 105.688 6.64656 110.68 8.43882C115.897 10.3143 117.773 15.3582 117.222 18.5075ZM110.469 14.8398C108.728 12.305 104.638 12.8107 103.633 14.8398C105.899 14.8398 108.171 14.8398 110.469 14.8398Z" fill="white"/>
<path d="M14.4679 18.7507C11.4211 18.7507 8.3806 18.7571 5.33375 18.7507C4.19439 18.7507 3.88714 18.2258 4.43122 17.2337C5.28255 15.6911 6.16588 14.1676 7.0044 12.6186C7.28604 12.1001 7.6637 11.9273 8.23338 11.9273C12.426 11.9401 16.6186 11.9401 20.8112 11.9273C21.3873 11.9273 21.7522 12.1193 22.0338 12.6314C22.8659 14.1548 23.7301 15.6591 24.575 17.1697C25.1511 18.2066 24.8438 18.7507 23.6789 18.7507C20.6128 18.7571 17.5404 18.7507 14.4679 18.7507Z" fill="#F26B35"/>
<path d="M14.4741 10.9416C12.8738 10.9416 11.2672 10.948 9.66695 10.9416C8.51478 10.9352 8.19473 10.4103 8.74521 9.431C10.3839 6.52497 12.0289 3.61894 13.6803 0.725709C14.2308 -0.240834 14.8069 -0.240834 15.3574 0.719308C17.0088 3.61894 18.6539 6.51857 20.2925 9.4246C20.8366 10.3911 20.4973 10.9352 19.3644 10.9416C17.7321 10.948 16.0999 10.9416 14.4741 10.9416Z" fill="#CAF9FF"/>
<path d="M0.603285 27.8721C0.462464 27.8721 0.328044 27.8209 0.212827 27.7249C-0.00480494 27.5393 -0.0624134 27.2449 0.0720064 26.9888L3.36209 20.7671C3.62453 20.2742 4.13661 19.967 4.69349 19.967H9.475C9.75024 19.967 9.98707 20.1334 10.0703 20.3958C10.1599 20.6583 10.0703 20.9335 9.85265 21.0999L0.961738 27.7505C0.852922 27.8337 0.731304 27.8721 0.603285 27.8721ZM4.69989 20.4727C4.32864 20.4727 3.98939 20.6775 3.81656 21.0039L0.526474 27.2257C0.50087 27.2769 0.520073 27.3153 0.545676 27.3345C0.57128 27.3537 0.609686 27.3729 0.654492 27.3409L9.54541 20.6903C9.60301 20.6455 9.59661 20.5879 9.58381 20.5623C9.57101 20.5303 9.54541 20.4791 9.475 20.4791H4.69989V20.4727Z" fill="#CAF9FF"/>
<path d="M28.9403 27.8721C28.8123 27.8721 28.6907 27.8337 28.5818 27.7505L19.6909 21.0935C19.4733 20.9271 19.3837 20.6518 19.4733 20.3894C19.5629 20.1269 19.7933 19.9605 20.0686 19.9605H24.8501C25.4134 19.9605 25.919 20.2678 26.1815 20.7606L29.4716 26.9823C29.606 27.2384 29.5484 27.5328 29.3308 27.7185C29.2155 27.8209 29.0811 27.8721 28.9403 27.8721ZM20.0622 20.4726C19.9918 20.4726 19.9598 20.5238 19.9534 20.5558C19.9406 20.5878 19.9342 20.6454 19.9918 20.6838L28.8827 27.3344C28.9275 27.3664 28.9659 27.3536 28.9915 27.328C29.0171 27.3088 29.0363 27.2704 29.0107 27.2192L25.7206 20.9975C25.5478 20.671 25.2085 20.4662 24.8373 20.4662H20.0622V20.4726Z" fill="#CAF9FF"/>
</svg>
