<svg width="193" height="46" viewBox="0 0 193 46" fill="none" xmlns="http://www.w3.org/2000/svg">
<path d="M48.5435 1.86523C51.7824 1.86523 54.8846 1.86523 58.1024 1.86523C58.1024 6.07157 58.1024 10.2148 58.1024 14.1477C60.7104 13.6956 63.2237 12.9384 65.7475 12.8753C72.772 12.7071 78.4506 15.5043 81.9524 21.7191C86.1377 29.1328 83.719 38.0818 76.5367 42.8665C67.4931 48.8816 55.2001 45.8951 50.1104 36.4308C48.9011 34.1804 48.4594 31.7197 48.4489 29.1959C48.4174 20.4678 48.4384 11.7396 48.4384 3.01146C48.4384 2.64341 48.5015 2.27535 48.5435 1.86523ZM74.2548 29.5534C74.402 25.4102 70.7951 21.7086 66.4625 21.5614C62.2667 21.4142 58.2812 24.9265 58.134 28.9015C57.9657 33.3707 61.457 37.0618 66.0104 37.2195C70.3324 37.3562 74.097 33.8649 74.2548 29.5534Z" fill="#0593A5"/>
<path d="M147.855 14.5471C147.855 10.204 147.855 6.06079 147.855 1.87549C151.094 1.87549 154.196 1.87549 157.33 1.87549C157.393 2.09632 157.477 2.25406 157.477 2.4118C157.477 11.5816 157.562 20.7514 157.435 29.9212C157.351 36.073 154.133 40.4791 148.949 43.5392C140.652 48.4291 129.453 45.7371 124.363 37.6609C118.916 29.0169 123.375 17.2391 133.354 13.8951C138.16 12.2862 142.902 12.4755 147.855 14.5471ZM139.79 21.5506C135.531 21.5401 131.629 25.2417 131.661 29.2587C131.693 33.6123 135.415 37.2403 139.811 37.2087C144.185 37.1772 147.792 33.6333 147.855 29.3008C147.919 25.2732 144.049 21.5611 139.79 21.5506Z" fill="#0593A5"/>
<path d="M103.952 12.7388C109.715 12.9701 115.267 15.5044 118.674 21.551C122.67 28.6387 120.851 36.8937 114.426 42.0675C105.708 49.071 92.3214 46.4 87.0109 36.5992C82.9833 29.175 85.9277 19.5951 93.5517 15.2415C96.4646 13.5695 99.5983 12.7493 103.952 12.7388ZM103.026 37.1776C107.485 37.1355 111.082 33.5601 111.071 29.175C111.061 25.0739 107.275 21.4985 102.953 21.509C98.6414 21.5195 94.9083 25.1159 94.9293 29.2486C94.9503 33.6443 98.5993 37.2196 103.026 37.1776Z" fill="#0593A5"/>
<path d="M192.579 30.405C184.514 30.405 176.406 30.405 168.172 30.405C168.645 33.3284 170.223 35.1897 172.62 36.399C175.344 37.766 177.794 37.2613 181.643 34.6218C183.325 37.0194 184.997 39.417 186.67 41.8041C182.284 46.1997 172.936 47.7666 165.722 42.6769C159.086 37.9974 156.899 29.08 160.685 21.7084C164.481 14.3262 173.63 10.9191 181.832 13.8635C190.403 16.9447 193.484 25.2312 192.579 30.405ZM181.485 24.3794C178.625 20.2151 171.905 21.0459 170.254 24.3794C173.977 24.3794 177.71 24.3794 181.485 24.3794Z" fill="#0593A5"/>
<path d="M23.7686 30.8046C18.763 30.8046 13.768 30.8151 8.76246 30.8046C6.89064 30.8046 6.38588 29.9423 7.27973 28.3124C8.67833 25.778 10.1295 23.2753 11.5071 20.7304C11.9698 19.8787 12.5902 19.5947 13.5261 19.5947C20.414 19.6158 27.3019 19.6158 34.1898 19.5947C35.1362 19.5947 35.7356 19.9102 36.1983 20.7515C37.5653 23.2542 38.985 25.7255 40.3731 28.2072C41.3195 29.9108 40.8147 30.8046 38.9009 30.8046C33.8638 30.8151 28.8162 30.8046 23.7686 30.8046Z" fill="#F26B35"/>
<path d="M23.7789 17.9755C21.1499 17.9755 18.5104 17.986 15.8815 17.9755C13.9886 17.965 13.4628 17.1027 14.3672 15.4938C17.0593 10.7196 19.7618 5.9454 22.4749 1.19224C23.3793 -0.395655 24.3257 -0.395655 25.2301 1.18172C27.9432 5.9454 30.6457 10.7091 33.3378 15.4833C34.2316 17.0712 33.6743 17.965 31.813 17.9755C29.1314 17.986 26.4499 17.9755 23.7789 17.9755Z" fill="#1091A3"/>
<path d="M0.991111 45.7898C0.759762 45.7898 0.53893 45.7057 0.349645 45.5479C-0.00789383 45.243 -0.102536 44.7592 0.118296 44.3386L5.52344 34.1172C5.95459 33.3075 6.79586 32.8027 7.71073 32.8027H15.5661C16.0182 32.8027 16.4073 33.0761 16.544 33.5073C16.6913 33.9384 16.544 34.3906 16.1865 34.664L1.58 45.59C1.40123 45.7267 1.20143 45.7898 0.991111 45.7898ZM7.72125 33.6335C7.11133 33.6335 6.55399 33.97 6.27006 34.5063L0.864921 44.7277C0.822857 44.8118 0.854405 44.8749 0.896468 44.9065C0.938532 44.938 1.00163 44.9696 1.07524 44.917L15.6817 33.991C15.7764 33.9174 15.7659 33.8228 15.7448 33.7807C15.7238 33.7281 15.6817 33.644 15.5661 33.644H7.72125V33.6335Z" fill="#1091A3"/>
<path d="M47.5448 45.7901C47.3345 45.7901 47.1347 45.727 46.9559 45.5903L32.3494 34.6538C31.9919 34.3804 31.8447 33.9282 31.9919 33.497C32.1391 33.0659 32.5177 32.7925 32.9699 32.7925H40.8252C41.7506 32.7925 42.5814 33.2972 43.0125 34.107L48.4176 44.3284C48.6385 44.749 48.5438 45.2327 48.1863 45.5377C47.997 45.7059 47.7762 45.7901 47.5448 45.7901ZM32.9594 33.6337C32.8437 33.6337 32.7911 33.7179 32.7806 33.7705C32.7596 33.823 32.749 33.9177 32.8437 33.9808L47.4502 44.9067C47.5238 44.9593 47.5869 44.9383 47.629 44.8962C47.671 44.8647 47.7026 44.8016 47.6605 44.7174L42.2554 34.496C41.9714 33.9597 41.4141 33.6232 40.8042 33.6232H32.9594V33.6337Z" fill="#1091A3"/>
</svg>
