<svg width="121" height="128" viewBox="0 0 121 128" fill="none" xmlns="http://www.w3.org/2000/svg">
<g clip-path="url(#clip0_3296_1031)">
<path d="M55.9312 7.10356C54.9824 6.24646 53.9829 5.42414 53.0657 4.52592C51.8797 3.36519 51.8291 1.78064 52.876 0.746422C53.9229 -0.2878 55.441 -0.265663 56.5891 0.857116C58.9611 3.17647 61.3089 5.52429 63.6325 7.90058C64.8217 9.11508 64.7901 10.5668 63.5882 11.7813C61.2815 14.1154 58.9622 16.4348 56.6302 18.7394C55.4663 19.8874 53.9798 19.9602 52.9297 18.9734C51.8797 17.9866 51.8702 16.3515 53.0025 15.1781C53.7552 14.3937 54.5839 13.6663 55.286 12.8092C52.7558 12.8092 50.3837 13.2646 48.0117 13.8086C26.5049 18.7583 9.70433 36.6342 6.03553 58.4446C1.07316 87.9373 20.6538 116.2 49.9979 121.874C80.101 127.7 109.141 107.958 114.866 77.8039C115.325 75.358 115.623 72.8847 115.758 70.3999C115.856 68.673 116.843 67.6577 118.405 67.7115C119.968 67.7653 120.897 68.7963 120.812 70.5896C120.338 80.3499 117.738 89.5156 112.722 97.9032C103.208 113.806 89.3426 123.79 71.0777 127.001C52.3763 130.277 35.5504 125.609 21.1061 113.211C10.1882 103.843 3.39462 91.9446 1.10162 77.7343C-1.74486 60.1778 2.29082 44.2091 13.332 30.2012C22.5957 18.4579 34.7249 11.2246 49.4191 8.35602C51.4939 7.95119 53.6003 7.72347 55.694 7.40719L55.9312 7.10356Z" fill="#02B8CF"/>
<path d="M106.302 67.6704C106.302 92.8428 85.7437 113.36 60.5618 113.356C35.38 113.353 14.8442 92.9092 14.8125 67.7083C14.7809 42.4347 35.2977 21.8768 60.5239 21.9211C85.8671 21.9654 106.302 42.4 106.302 67.6704ZM101.434 67.6166C101.403 44.5538 82.2932 26.4375 59.8471 26.7253C37.7995 27.0068 19.5156 45.5248 19.68 67.819C19.7127 73.203 20.8064 78.5277 22.8984 83.4886C24.9904 88.4496 28.0399 92.9495 31.8723 96.7311C35.7047 100.513 40.2449 103.502 45.2334 105.527C50.2218 107.553 55.5606 108.576 60.9445 108.536C83.1503 108.429 101.558 89.8445 101.437 67.6135L101.434 67.6166Z" fill="url(#paint0_linear_3296_1031)"/>
<path d="M58.1231 55.0858C58.1231 50.9784 58.1231 46.8668 58.1231 42.751C58.1231 41.5618 58.6102 40.6478 59.7772 40.2967C60.2654 40.1159 60.7996 40.1016 61.2967 40.2561C61.7938 40.4105 62.2259 40.7251 62.5257 41.1507C62.9906 41.7642 62.9621 42.479 62.9621 43.1906C62.9621 49.9379 62.9621 56.6914 62.9621 63.4513C62.9621 65.4343 62.6933 65.1686 64.7491 65.1781C68.6203 65.1781 72.4883 65.1781 76.3596 65.1781C78.0137 65.1781 78.9847 65.9846 79.1048 67.3509C79.2282 68.7963 78.3236 69.9887 76.8909 70.0013C71.4088 70.0477 65.9193 70.0477 60.4224 70.0013C58.9612 70.0013 58.1452 68.9766 58.1421 67.3857C58.1136 63.29 58.1231 59.1974 58.1231 55.0858Z" fill="url(#paint1_linear_3296_1031)"/>
<path d="M64.1135 102.015C64.1167 102.491 64.0227 102.963 63.8373 103.401C63.6519 103.84 63.379 104.236 63.0353 104.565C62.6916 104.895 62.2844 105.151 61.8384 105.317C61.3924 105.484 60.9171 105.558 60.4416 105.535C59.5047 105.508 58.6156 105.116 57.9651 104.441C57.3147 103.766 56.9547 102.863 56.9625 101.926C56.9899 100.989 57.3763 100.097 58.042 99.4362C58.7076 98.7752 59.6017 98.3951 60.5396 98.3745C61.0141 98.3761 61.4835 98.4718 61.9208 98.6562C62.358 98.8405 62.7543 99.1098 63.0867 99.4484C63.4191 99.787 63.681 100.188 63.8573 100.629C64.0335 101.069 64.1206 101.54 64.1135 102.015Z" fill="url(#paint2_linear_3296_1031)"/>
<path d="M43.4102 34.3096C43.8887 34.3011 44.364 34.3886 44.8081 34.567C45.2522 34.7453 45.6561 35.0109 45.9958 35.348C46.3355 35.6852 46.6041 36.087 46.7858 36.5297C46.9676 36.9724 47.0587 37.4471 47.0539 37.9256C47.049 38.4042 46.9482 38.8769 46.7575 39.3159C46.5668 39.7548 46.2901 40.1511 45.9436 40.4812C45.5971 40.8114 45.188 41.0687 44.7403 41.238C44.2927 41.4073 43.8157 41.4851 43.3374 41.4669C42.4059 41.4314 41.5249 41.034 40.8818 40.3591C40.2388 39.6842 39.8843 38.7851 39.8937 37.8529C39.9032 36.9207 40.2759 36.029 40.9326 35.3673C41.5892 34.7056 42.4781 34.3261 43.4102 34.3096Z" fill="url(#paint3_linear_3296_1031)"/>
<path d="M27.2577 50.4017C27.2517 49.9357 27.3393 49.4733 27.5155 49.0419C27.6916 48.6105 27.9526 48.2188 28.283 47.8902C28.6134 47.5616 29.0064 47.3027 29.4388 47.1289C29.8712 46.9551 30.334 46.8699 30.8 46.8784C31.7499 46.8784 32.661 47.2558 33.3327 47.9275C34.0044 48.5992 34.3818 49.5103 34.3818 50.4602C34.3818 51.4102 34.0044 52.3212 33.3327 52.993C32.661 53.6647 31.7499 54.042 30.8 54.042C30.3239 54.0512 29.851 53.9626 29.4106 53.7816C28.9702 53.6006 28.5716 53.3311 28.2395 52.9899C27.9075 52.6486 27.649 52.2429 27.4801 51.7977C27.3112 51.3525 27.2355 50.8773 27.2577 50.4017Z" fill="url(#paint4_linear_3296_1031)"/>
<path d="M29.7627 67.7368C29.7623 68.2019 29.6676 68.6622 29.4843 69.0896C29.3009 69.5171 29.0328 69.9029 28.696 70.2237C28.3592 70.5445 27.9608 70.7936 27.525 70.956C27.0891 71.1184 26.6249 71.1907 26.1603 71.1684C25.6854 71.1711 25.215 71.077 24.7776 70.892C24.3403 70.707 23.9452 70.4348 23.6164 70.0922C23.2877 69.7495 23.0321 69.3435 22.8654 68.8989C22.6986 68.4542 22.6241 67.9803 22.6464 67.5059C22.6721 66.568 23.0676 65.6783 23.7465 65.0308C24.4255 64.3832 25.3329 64.0303 26.271 64.049C26.7457 64.051 27.2151 64.1492 27.6508 64.3378C28.0864 64.5263 28.4793 64.8012 28.8057 65.146C29.1321 65.4907 29.3852 65.898 29.5497 66.3433C29.7142 66.7887 29.7866 67.2627 29.7627 67.7368Z" fill="url(#paint5_linear_3296_1031)"/>
<path d="M43.4197 93.8264C43.8847 93.8222 44.3459 93.9106 44.7764 94.0864C45.2069 94.2622 45.5981 94.5219 45.9272 94.8504C46.2563 95.1789 46.5167 95.5697 46.6933 95.9998C46.8699 96.43 46.9591 96.891 46.9557 97.356C46.9561 97.8314 46.8626 98.3021 46.6804 98.7412C46.4982 99.1802 46.2309 99.5789 45.8941 99.9143C45.5572 100.25 45.1574 100.515 44.7175 100.695C44.2777 100.876 43.8065 100.967 43.3312 100.965C42.8656 100.96 42.4054 100.864 41.977 100.682C41.5486 100.499 41.1603 100.234 40.8343 99.9017C40.5083 99.5693 40.251 99.1759 40.077 98.7439C39.9031 98.312 39.8159 97.8501 39.8205 97.3845C39.8057 96.9097 39.889 96.437 40.0652 95.9959C40.2414 95.5548 40.5067 95.1548 40.8445 94.8208C41.1823 94.4869 41.5853 94.2262 42.0284 94.0551C42.4715 93.884 42.9452 93.8061 43.4197 93.8264Z" fill="url(#paint6_linear_3296_1031)"/>
<path d="M94.9312 71.1747C94.456 71.1926 93.9821 71.1129 93.5389 70.9404C93.0957 70.768 92.6926 70.5066 92.3544 70.1722C92.0162 69.8379 91.7502 69.4378 91.5727 68.9966C91.3952 68.5554 91.31 68.0825 91.3225 67.6071C91.3241 66.6683 91.696 65.7681 92.3575 65.1019C93.0189 64.4357 93.9165 64.0573 94.8553 64.049C95.3304 64.0461 95.8013 64.1371 96.2411 64.3168C96.6809 64.4965 97.0809 64.7613 97.418 65.0961C97.7551 65.4308 98.0227 65.8289 98.2055 66.2675C98.3883 66.706 98.4826 67.1763 98.483 67.6514C98.4842 68.1169 98.393 68.5779 98.2146 69.0078C98.0363 69.4377 97.7742 69.8279 97.4438 70.1557C97.1133 70.4835 96.7211 70.7424 96.2897 70.9173C95.8584 71.0923 95.3966 71.1797 94.9312 71.1747Z" fill="url(#paint7_linear_3296_1031)"/>
<path d="M27.2609 84.8568C27.2379 84.3825 27.3134 83.9086 27.4827 83.4649C27.652 83.0212 27.9114 82.6175 28.2445 82.279C28.5776 81.9406 28.9772 81.6748 29.4181 81.4985C29.859 81.3221 30.3317 81.239 30.8063 81.2544C31.2707 81.2456 31.7322 81.3288 32.1643 81.4992C32.5964 81.6696 32.9905 81.9238 33.3239 82.2472C33.6573 82.5706 33.9234 82.9568 34.1069 83.3835C34.2903 83.8102 34.3875 84.269 34.3929 84.7335C34.3966 85.2082 34.3068 85.679 34.1286 86.1191C33.9504 86.5591 33.6873 86.9597 33.3542 87.2981C33.0212 87.6364 32.6248 87.9058 32.1876 88.0909C31.7504 88.276 31.2811 88.3732 30.8063 88.377C30.342 88.3799 29.8817 88.291 29.4519 88.1155C29.0221 87.9399 28.6312 87.6811 28.3018 87.354C27.9723 87.0269 27.7107 86.6378 27.5321 86.2093C27.3534 85.7807 27.2613 85.3211 27.2609 84.8568Z" fill="url(#paint8_linear_3296_1031)"/>
<path d="M60.5522 29.7363C61.0162 29.7249 61.4778 29.8065 61.9098 29.9762C62.3418 30.1459 62.7355 30.4004 63.0677 30.7246C63.3998 31.0488 63.6637 31.4362 63.8439 31.8639C64.0241 32.2917 64.1168 32.7512 64.1166 33.2153C64.1281 33.6903 64.0439 34.1627 63.8691 34.6045C63.6942 35.0463 63.4322 35.4484 63.0988 35.7869C62.7653 36.1253 62.3672 36.3933 61.9281 36.5747C61.489 36.7561 61.0178 36.8474 60.5427 36.843C59.6082 36.8384 58.7121 36.4705 58.0439 35.8171C57.3757 35.1637 56.9879 34.276 56.9625 33.3418C56.954 32.8673 57.0409 32.396 57.2181 31.9557C57.3953 31.5154 57.6591 31.1153 57.9939 30.779C58.3288 30.4427 58.7278 30.1771 59.1672 29.9979C59.6067 29.8188 60.0777 29.7298 60.5522 29.7363Z" fill="url(#paint9_linear_3296_1031)"/>
<path d="M77.7354 93.8232C78.2 93.8156 78.6614 93.9011 79.0924 94.0747C79.5234 94.2483 79.9153 94.5065 80.2448 94.834C80.5744 95.1616 80.8351 95.5518 81.0114 95.9817C81.1877 96.4116 81.2761 96.8724 81.2714 97.3371C81.2831 97.813 81.1991 98.2864 81.0245 98.7293C80.8499 99.1722 80.5882 99.5755 80.2549 99.9154C79.9216 100.255 79.5234 100.525 79.0841 100.708C78.6447 100.891 78.173 100.985 77.6969 100.982C77.2209 100.98 76.7501 100.882 76.3126 100.695C75.875 100.507 75.4795 100.234 75.1496 99.8905C74.8196 99.5473 74.5619 99.1414 74.3916 98.6968C74.2213 98.2523 74.142 97.778 74.1583 97.3023C74.1582 96.837 74.2513 96.3765 74.4322 95.9479C74.6132 95.5192 74.8782 95.1313 75.2117 94.8069C75.5453 94.4825 75.9404 94.2283 76.3739 94.0594C76.8074 93.8904 77.2704 93.8101 77.7354 93.8232Z" fill="url(#paint10_linear_3296_1031)"/>
<path d="M86.743 84.8537C86.7366 84.3864 86.8222 83.9225 86.9951 83.4883C87.168 83.0542 87.4246 82.6583 87.7505 82.3234C88.4086 81.6469 89.3084 81.2596 90.2521 81.2466C91.1958 81.2336 92.1059 81.596 92.7824 82.254C93.4589 82.9121 93.8462 83.812 93.8592 84.7556C93.8685 85.2306 93.7827 85.7026 93.607 86.144C93.4312 86.5854 93.169 86.9871 92.8357 87.3257C92.5025 87.6643 92.1049 87.9328 91.6664 88.1155C91.2278 88.2982 90.7572 88.3914 90.2821 88.3896C89.8166 88.3934 89.3549 88.3046 88.924 88.1283C88.4932 87.9519 88.1016 87.6917 87.7723 87.3626C87.4429 87.0336 87.1823 86.6423 87.0056 86.2115C86.8289 85.7808 86.7396 85.3192 86.743 84.8537Z" fill="url(#paint11_linear_3296_1031)"/>
<path d="M81.2684 37.9057C81.2601 38.6086 81.0432 39.2933 80.6452 39.8728C80.2472 40.4523 79.686 40.9006 79.0329 41.1607C78.3798 41.4208 77.6641 41.481 76.9767 41.3337C76.2892 41.1865 75.661 40.8383 75.1718 40.3335C74.6825 39.8287 74.3542 39.1899 74.2285 38.4982C74.1029 37.8065 74.1855 37.0931 74.4659 36.4484C74.7463 35.8037 75.2119 35.2569 75.8036 34.8772C76.3953 34.4975 77.0865 34.3022 77.7893 34.3159C78.2538 34.3221 78.7125 34.42 79.139 34.6039C79.5655 34.7879 79.9515 35.0543 80.2748 35.3879C80.5981 35.7214 80.8523 36.1156 81.0228 36.5476C81.1933 36.9797 81.2767 37.4412 81.2684 37.9057Z" fill="url(#paint12_linear_3296_1031)"/>
<path d="M86.7396 50.465C86.7244 49.9886 86.8049 49.5141 86.9765 49.0695C87.148 48.6248 87.407 48.2191 87.7382 47.8764C88.0694 47.5337 88.466 47.261 88.9045 47.0744C89.3431 46.8877 89.8146 46.791 90.2911 46.79C90.7677 46.7889 91.2397 46.8835 91.679 47.0682C92.1184 47.2529 92.5162 47.5238 92.8489 47.8651C93.1816 48.2063 93.4424 48.6108 93.6159 49.0547C93.7894 49.4986 93.8721 49.9728 93.859 50.4492C93.8742 50.9255 93.7937 51.4 93.6221 51.8447C93.4506 52.2893 93.1916 52.695 92.8604 53.0377C92.5292 53.3804 92.1326 53.6531 91.6941 53.8398C91.2555 54.0264 90.784 54.1231 90.3074 54.1241C89.8309 54.1252 89.3589 54.0306 88.9196 53.8459C88.4802 53.6613 88.0824 53.3903 87.7497 53.0491C87.417 52.7078 87.1562 52.3033 86.9827 51.8594C86.8092 51.4156 86.7265 50.9414 86.7396 50.465Z" fill="url(#paint13_linear_3296_1031)"/>
</g>
<defs>
<linearGradient id="paint0_linear_3296_1031" x1="14.8125" y1="66.8892" x2="109.227" y2="107.21" gradientUnits="userSpaceOnUse">
<stop stop-color="#FF8F63"/>
<stop offset="1" stop-color="#F26B35"/>
</linearGradient>
<linearGradient id="paint1_linear_3296_1031" x1="58.1216" y1="55.093" x2="79.1161" y2="55.093" gradientUnits="userSpaceOnUse">
<stop stop-color="#F26B35"/>
<stop offset="1" stop-color="#40C0D0"/>
</linearGradient>
<linearGradient id="paint2_linear_3296_1031" x1="56.9624" y1="101.957" x2="64.1139" y2="101.957" gradientUnits="userSpaceOnUse">
<stop stop-color="#EA4E4B"/>
<stop offset="1" stop-color="#292A29"/>
</linearGradient>
<linearGradient id="paint3_linear_3296_1031" x1="39.8936" y1="37.8893" x2="47.054" y2="37.8893" gradientUnits="userSpaceOnUse">
<stop stop-color="#F26B35"/>
<stop offset="1" stop-color="#40C0D0"/>
</linearGradient>
<linearGradient id="paint4_linear_3296_1031" x1="27.2539" y1="50.4602" x2="34.3818" y2="50.4602" gradientUnits="userSpaceOnUse">
<stop stop-color="#F26B35"/>
<stop offset="1" stop-color="#40C0D0"/>
</linearGradient>
<linearGradient id="paint5_linear_3296_1031" x1="22.6426" y1="67.6103" x2="29.7671" y2="67.6103" gradientUnits="userSpaceOnUse">
<stop stop-color="#F26B35"/>
<stop offset="1" stop-color="#40C0D0"/>
</linearGradient>
<linearGradient id="paint6_linear_3296_1031" x1="39.8188" y1="97.394" x2="46.9558" y2="97.394" gradientUnits="userSpaceOnUse">
<stop stop-color="#F26B35"/>
<stop offset="1" stop-color="#40C0D0"/>
</linearGradient>
<linearGradient id="paint7_linear_3296_1031" x1="91.3213" y1="67.6131" x2="98.483" y2="67.6131" gradientUnits="userSpaceOnUse">
<stop stop-color="#F26B35"/>
<stop offset="1" stop-color="#40C0D0"/>
</linearGradient>
<linearGradient id="paint8_linear_3296_1031" x1="27.2568" y1="84.8148" x2="34.393" y2="84.8148" gradientUnits="userSpaceOnUse">
<stop stop-color="#F26B35"/>
<stop offset="1" stop-color="#40C0D0"/>
</linearGradient>
<linearGradient id="paint9_linear_3296_1031" x1="56.9619" y1="33.2892" x2="64.1177" y2="33.2892" gradientUnits="userSpaceOnUse">
<stop stop-color="#EA4E4B"/>
<stop offset="1" stop-color="#292A29"/>
</linearGradient>
<linearGradient id="paint10_linear_3296_1031" x1="74.1562" y1="97.4021" x2="81.2725" y2="97.4021" gradientUnits="userSpaceOnUse">
<stop stop-color="#F26B35"/>
<stop offset="1" stop-color="#40C0D0"/>
</linearGradient>
<linearGradient id="paint11_linear_3296_1031" x1="86.7427" y1="84.818" x2="93.8599" y2="84.818" gradientUnits="userSpaceOnUse">
<stop stop-color="#EA4E4B"/>
<stop offset="1" stop-color="#292A29"/>
</linearGradient>
<linearGradient id="paint12_linear_3296_1031" x1="74.1714" y1="37.8639" x2="81.2689" y2="37.8639" gradientUnits="userSpaceOnUse">
<stop stop-color="#F26B35"/>
<stop offset="1" stop-color="#40C0D0"/>
</linearGradient>
<linearGradient id="paint13_linear_3296_1031" x1="86.7378" y1="50.4571" x2="93.8608" y2="50.4571" gradientUnits="userSpaceOnUse">
<stop stop-color="#EA4E4B"/>
<stop offset="1" stop-color="#292A29"/>
</linearGradient>
<clipPath id="clip0_3296_1031">
<rect width="120.605" height="128" fill="white" transform="translate(0.197266)"/>
</clipPath>
</defs>
</svg>
