<svg width="15" height="13" viewBox="0 0 15 13" fill="none" xmlns="http://www.w3.org/2000/svg">
<path d="M8.51446 0.217537C7.71683 -0.072512 6.84255 -0.0725124 6.04491 0.217537L0.951358 2.06974C-0.317114 2.531 -0.317124 4.32498 0.951356 4.78624L6.04491 6.63845C6.84255 6.9285 7.71683 6.9285 8.51446 6.63845L13.608 4.78624C14.8765 4.32498 14.8765 2.53101 13.608 2.06974L8.51446 0.217537Z" fill="#02B8CF"/>
<path fill-rule="evenodd" clip-rule="evenodd" d="M0.0951772 6.7846C0.228879 6.40857 0.642105 6.21212 1.01814 6.34582L6.79558 8.40002C7.10876 8.51137 7.45075 8.51137 7.76394 8.40002L13.5414 6.34582C13.9174 6.21212 14.3306 6.40857 14.4643 6.7846C14.598 7.16064 14.4016 7.57387 14.0255 7.70757L8.24811 9.76177C7.62175 9.98448 6.93776 9.98448 6.3114 9.76177L0.533964 7.70757C0.157926 7.57387 -0.038525 7.16064 0.0951772 6.7846Z" fill="#F26B35"/>
<path fill-rule="evenodd" clip-rule="evenodd" d="M0.0951772 9.8558C0.228879 9.47976 0.642105 9.28331 1.01814 9.41702L6.79558 11.4712C7.10876 11.5826 7.45075 11.5826 7.76394 11.4712L13.5414 9.41702C13.9174 9.28331 14.3306 9.47976 14.4643 9.8558C14.598 10.2318 14.4016 10.6451 14.0255 10.7788L8.24811 12.833C7.62175 13.0557 6.93776 13.0557 6.3114 12.833L0.533964 10.7788C0.157926 10.6451 -0.038525 10.2318 0.0951772 9.8558Z" fill="#02B8CF"/>
</svg>
