<svg width="19" height="14" viewBox="0 0 19 14" fill="none" xmlns="http://www.w3.org/2000/svg">
<path d="M12.3622 0H2.8096C1.23622 0 0 1.23622 0 2.8096V6.74304C0 8.31642 1.23622 9.55265 2.8096 9.55265H9.77742C9.66503 9.21549 9.55265 8.99073 9.55265 8.65357C9.55265 7.52973 10.4517 6.74304 11.4632 6.74304C12.4746 6.74304 13.3737 7.64212 13.3737 8.65357C13.3737 8.99073 13.2613 9.21549 13.1489 9.55265C14.3852 9.21549 15.2842 8.09165 15.2842 6.74304V2.8096C15.2842 1.23622 14.048 0 12.3622 0Z" fill="#F26B35"/>
<path d="M16.1831 3.82104H6.6304C5.05703 3.82104 3.8208 5.05727 3.8208 6.74303V10.5641C3.8208 12.1375 5.05703 13.3737 6.6304 13.3737H16.1831C17.7564 13.3737 18.9927 12.1375 18.9927 10.5641V6.74303C19.105 5.05727 17.8688 3.82104 16.1831 3.82104ZM11.4629 10.4517C10.4515 10.4517 9.55239 9.55263 9.55239 8.54118C9.55239 7.52972 10.4515 6.74303 11.4629 6.74303C12.4744 6.74303 13.3734 7.6421 13.3734 8.65356C13.3734 9.66502 12.4744 10.4517 11.4629 10.4517Z" fill="#02B8CF"/>
</svg>
