<svg width="17" height="15" viewBox="0 0 17 15" fill="none" xmlns="http://www.w3.org/2000/svg">
<path d="M13.0647 8.20374H9.9165C12.1202 8.20374 13.8517 9.93522 13.8517 12.1389V12.926C13.8517 13.7917 13.1434 14.5 12.2776 14.5H15.4258C16.2915 14.5 16.9998 13.7917 16.9998 12.926V12.1389C16.9998 9.93522 15.2684 8.20374 13.0647 8.20374Z" fill="url(#paint0_linear_3296_1075)"/>
<path d="M10.6249 0.333344C10.0739 0.333344 9.523 0.490751 9.05078 0.805566C9.99523 1.35649 10.6249 2.37964 10.6249 3.48149C10.6249 4.58334 9.99523 5.6852 9.05078 6.15742C9.523 6.39353 10.0739 6.62964 10.6249 6.62964C12.3563 6.62964 13.773 5.21297 13.773 3.48149C13.773 1.75001 12.3563 0.333344 10.6249 0.333344Z" fill="url(#paint1_linear_3296_1075)"/>
<path d="M6.2961 6.62964C8.03477 6.62964 9.44425 5.22017 9.44425 3.48149C9.44425 1.74282 8.03477 0.333344 6.2961 0.333344C4.55742 0.333344 3.14795 1.74282 3.14795 3.48149C3.14795 5.22017 4.55742 6.62964 6.2961 6.62964Z" fill="#02B8CF"/>
<path d="M3.93518 8.20374C1.73148 8.20374 0 9.93522 0 12.1389V12.926C0 13.7917 0.708333 14.5 1.57407 14.5H11.0185C11.8843 14.5 12.5926 13.7917 12.5926 12.926V12.1389C12.5926 9.93522 10.8611 8.20374 8.65741 8.20374H3.93518Z" fill="#02B8CF"/>
<defs>
<linearGradient id="paint0_linear_3296_1075" x1="9.9165" y1="11.3003" x2="16.9401" y2="14.6727" gradientUnits="userSpaceOnUse">
<stop stop-color="#FF8F63"/>
<stop offset="1" stop-color="#F26B35"/>
</linearGradient>
<linearGradient id="paint1_linear_3296_1075" x1="9.05078" y1="3.42988" x2="14.2772" y2="5.10289" gradientUnits="userSpaceOnUse">
<stop stop-color="#FF8F63"/>
<stop offset="1" stop-color="#F26B35"/>
</linearGradient>
</defs>
</svg>
