<svg width="36" height="36" viewBox="0 0 36 36" fill="none" xmlns="http://www.w3.org/2000/svg">
<path d="M16.65 34.125H10.35C4.485 34.125 1.875 31.515 1.875 25.65V19.35C1.875 13.485 4.485 10.875 10.35 10.875H16.65C22.515 10.875 25.125 13.485 25.125 19.35V25.65C25.125 31.515 22.515 34.125 16.65 34.125ZM10.35 13.125C5.7 13.125 4.125 14.7 4.125 19.35V25.65C4.125 30.3 5.7 31.875 10.35 31.875H16.65C21.3 31.875 22.875 30.3 22.875 25.65V19.35C22.875 14.7 21.3 13.125 16.65 13.125H10.35Z" fill="url(#paint0_linear_4137_1399)"/>
<path d="M25.65 25.125H24C23.385 25.125 22.875 24.615 22.875 24V19.35C22.875 14.7 21.3 13.125 16.65 13.125H12C11.385 13.125 10.875 12.615 10.875 12V10.35C10.875 4.485 13.485 1.875 19.35 1.875H25.65C31.515 1.875 34.125 4.485 34.125 10.35V16.65C34.125 22.515 31.515 25.125 25.65 25.125ZM25.125 22.875H25.65C30.3 22.875 31.875 21.3 31.875 16.65V10.35C31.875 5.7 30.3 4.125 25.65 4.125H19.35C14.7 4.125 13.125 5.7 13.125 10.35V10.875H16.65C22.515 10.875 25.125 13.485 25.125 19.35V22.875Z" fill="url(#paint1_linear_4137_1399)"/>
<defs>
<linearGradient id="paint0_linear_4137_1399" x1="1.875" y1="22.3094" x2="25.8727" y2="32.5518" gradientUnits="userSpaceOnUse">
<stop stop-color="#FF8F63"/>
<stop offset="1" stop-color="#F26B35"/>
</linearGradient>
<linearGradient id="paint1_linear_4137_1399" x1="10.875" y1="13.3094" x2="34.8727" y2="23.5518" gradientUnits="userSpaceOnUse">
<stop stop-color="#FF8F63"/>
<stop offset="1" stop-color="#F26B35"/>
</linearGradient>
</defs>
</svg>
