<svg width="20" height="24" viewBox="0 0 20 24" fill="none" xmlns="http://www.w3.org/2000/svg">
<path fill-rule="evenodd" clip-rule="evenodd" d="M19 7.05L12 0.75C10.9 -0.25 9.1 -0.25 8 0.75L1 7.05C0.4 7.55 0 8.35 0 9.25V16.95C0 18.65 1.3 19.95 3 19.95H6H7V13.95C7 12.85 7.9 11.95 9 11.95H11C12.1 11.95 13 12.85 13 13.95V19.95H14H17C18.7 19.95 20 18.65 20 16.95V9.25C20 8.35 19.6 7.55 19 7.05Z" fill="#40C0D0"/>
<path d="M18.2999 23.15H1.6999C1.2999 23.15 0.899902 22.85 0.899902 22.35V21.55C0.899902 21.15 1.1999 20.75 1.6999 20.75H18.1999C18.5999 20.75 18.9999 21.05 18.9999 21.55V22.35C18.9999 22.85 18.6999 23.15 18.2999 23.15Z" fill="#F26B35"/>
</svg>
