<svg width="30" height="28" viewBox="0 0 30 28" fill="none" xmlns="http://www.w3.org/2000/svg">
<path d="M14.468 18.7507C11.4212 18.7507 8.38073 18.7571 5.33388 18.7507C4.19451 18.7507 3.88726 18.2258 4.43134 17.2336C5.28267 15.691 6.166 14.1676 7.00452 12.6185C7.28616 12.1001 7.66382 11.9272 8.2335 11.9272C12.4261 11.94 16.6187 11.94 20.8114 11.9272C21.3875 11.9272 21.7523 12.1193 22.0339 12.6314C22.8661 14.1548 23.7302 15.659 24.5751 17.1696C25.1512 18.2066 24.844 18.7507 23.679 18.7507C20.6129 18.7571 17.5405 18.7507 14.468 18.7507Z" fill="#F26B35"/>
<path d="M14.4741 10.9416C12.8738 10.9416 11.2672 10.948 9.66695 10.9416C8.51478 10.9352 8.19473 10.4103 8.74521 9.431C10.3839 6.52497 12.0289 3.61894 13.6803 0.725709C14.2308 -0.240834 14.8069 -0.240834 15.3574 0.719308C17.0088 3.61894 18.6539 6.51857 20.2925 9.4246C20.8366 10.3911 20.4973 10.9352 19.3644 10.9416C17.7321 10.948 16.0999 10.9416 14.4741 10.9416Z" fill="#CAF9FF"/>
<path d="M0.603285 27.8721C0.462464 27.8721 0.328044 27.8209 0.212827 27.7249C-0.00480494 27.5392 -0.0624134 27.2448 0.0720064 26.9888L3.36209 20.767C3.62453 20.2742 4.13661 19.9669 4.69349 19.9669H9.475C9.75024 19.9669 9.98707 20.1333 10.0703 20.3958C10.1599 20.6582 10.0703 20.9335 9.85265 21.0999L0.961738 27.7505C0.852922 27.8337 0.731304 27.8721 0.603285 27.8721ZM4.69989 20.4726C4.32864 20.4726 3.98939 20.6774 3.81656 21.0039L0.526474 27.2256C0.50087 27.2768 0.520073 27.3152 0.545676 27.3344C0.57128 27.3536 0.609686 27.3728 0.654492 27.3408L9.54541 20.6902C9.60301 20.6454 9.59661 20.5878 9.58381 20.5622C9.57101 20.5302 9.54541 20.479 9.475 20.479H4.69989V20.4726Z" fill="#CAF9FF"/>
<path d="M28.9404 27.8721C28.8124 27.8721 28.6908 27.8337 28.582 27.7505L19.691 21.0935C19.4734 20.9271 19.3838 20.6519 19.4734 20.3894C19.563 20.127 19.7935 19.9606 20.0687 19.9606H24.8502C25.4135 19.9606 25.9192 20.2678 26.1816 20.7607L29.4717 26.9824C29.6061 27.2384 29.5485 27.5329 29.3309 27.7185C29.2157 27.8209 29.0812 27.8721 28.9404 27.8721ZM20.0623 20.4726C19.9919 20.4726 19.9599 20.5239 19.9535 20.5559C19.9407 20.5879 19.9343 20.6455 19.9919 20.6839L28.8828 27.3345C28.9276 27.3665 28.966 27.3537 28.9916 27.3281C29.0172 27.3089 29.0364 27.2705 29.0108 27.2192L25.7207 20.9975C25.5479 20.6711 25.2087 20.4662 24.8374 20.4662H20.0623V20.4726Z" fill="#CAF9FF"/>
</svg>
