<svg width="21" height="21" viewBox="0 0 21 21" fill="none" xmlns="http://www.w3.org/2000/svg">
<path d="M8.90735 4H12.9073C12.9073 3.46957 12.6966 2.96086 12.3216 2.58579C11.9465 2.21071 11.4378 2 10.9073 2C10.3769 2 9.86821 2.21071 9.49314 2.58579C9.11806 2.96086 8.90735 3.46957 8.90735 4ZM7.40735 4C7.40735 3.54037 7.49788 3.08525 7.67377 2.66061C7.84966 2.23597 8.10747 1.85013 8.43248 1.52513C8.75748 1.20012 9.14332 0.942313 9.56796 0.766422C9.9926 0.59053 10.4477 0.5 10.9073 0.5C11.367 0.5 11.8221 0.59053 12.2467 0.766422C12.6714 0.942313 13.0572 1.20012 13.3822 1.52513C13.7072 1.85013 13.965 2.23597 14.1409 2.66061C14.3168 3.08525 14.4073 3.54037 14.4073 4H20.1573C20.3563 4 20.547 4.07902 20.6877 4.21967C20.8283 4.36032 20.9073 4.55109 20.9073 4.75C20.9073 4.94891 20.8283 5.13968 20.6877 5.28033C20.547 5.42098 20.3563 5.5 20.1573 5.5H18.8373L17.6673 17.611C17.5776 18.539 17.1454 19.4002 16.455 20.0268C15.7647 20.6534 14.8657 21.0004 13.9333 21H7.88135C6.94921 21.0001 6.05045 20.653 5.3603 20.0265C4.67015 19.3999 4.23808 18.5388 4.14835 17.611L2.97735 5.5H1.65735C1.45844 5.5 1.26767 5.42098 1.12702 5.28033C0.986366 5.13968 0.907349 4.94891 0.907349 4.75C0.907349 4.55109 0.986366 4.36032 1.12702 4.21967C1.26767 4.07902 1.45844 4 1.65735 4H7.40735ZM9.40735 8.75C9.40735 8.55109 9.32833 8.36032 9.18768 8.21967C9.04703 8.07902 8.85626 8 8.65735 8C8.45844 8 8.26767 8.07902 8.12702 8.21967C7.98637 8.36032 7.90735 8.55109 7.90735 8.75V16.25C7.90735 16.4489 7.98637 16.6397 8.12702 16.7803C8.26767 16.921 8.45844 17 8.65735 17C8.85626 17 9.04703 16.921 9.18768 16.7803C9.32833 16.6397 9.40735 16.4489 9.40735 16.25V8.75ZM13.1573 8C13.3563 8 13.547 8.07902 13.6877 8.21967C13.8283 8.36032 13.9073 8.55109 13.9073 8.75V16.25C13.9073 16.4489 13.8283 16.6397 13.6877 16.7803C13.547 16.921 13.3563 17 13.1573 17C12.9584 17 12.7677 16.921 12.627 16.7803C12.4864 16.6397 12.4073 16.4489 12.4073 16.25V8.75C12.4073 8.55109 12.4864 8.36032 12.627 8.21967C12.7677 8.07902 12.9584 8 13.1573 8ZM5.64135 17.467C5.69529 18.0236 5.95459 18.5403 6.36872 18.9161C6.78284 19.292 7.32209 19.5001 7.88135 19.5H13.9333C14.4926 19.5001 15.0319 19.292 15.446 18.9161C15.8601 18.5403 16.1194 18.0236 16.1733 17.467L17.3313 5.5H4.48335L5.64135 17.467Z" fill="url(#paint0_linear_4133_293)"/>
<defs>
<linearGradient id="paint0_linear_4133_293" x1="0.907349" y1="10.582" x2="21.7049" y2="19.242" gradientUnits="userSpaceOnUse">
<stop stop-color="#63C7D3"/>
<stop offset="1" stop-color="#0593A5"/>
</linearGradient>
</defs>
</svg>
