<svg width="31" height="28" viewBox="0 0 31 28" fill="none" xmlns="http://www.w3.org/2000/svg">
<path d="M17.633 1.15219C15.9828 0.552134 14.1741 0.552133 12.5239 1.15219L1.98626 4.98408C-0.637988 5.93835 -0.638008 9.64978 1.98626 10.6041L12.5239 14.4359C14.1741 15.036 15.9828 15.036 17.633 14.4359L28.1707 10.6041C30.7949 9.64978 30.795 5.93836 28.1707 4.98408L17.633 1.15219Z" fill="#02B8CF"/>
<path fill-rule="evenodd" clip-rule="evenodd" d="M0.215215 14.7379C0.491821 13.9599 1.34671 13.5535 2.12467 13.8301L14.0772 18.0799C14.7251 18.3102 15.4326 18.3102 16.0805 18.0799L28.033 13.8301C28.811 13.5535 29.6659 13.9599 29.9425 14.7379C30.2191 15.5158 29.8127 16.3707 29.0347 16.6473L17.0822 20.8971C15.7864 21.3578 14.3713 21.3578 13.0755 20.8971L1.12299 16.6473C0.345032 16.3707 -0.061392 15.5158 0.215215 14.7379Z" fill="#02B8CF"/>
<path fill-rule="evenodd" clip-rule="evenodd" d="M0.215215 21.0916C0.491821 20.3137 1.34671 19.9072 2.12467 20.1838L14.0772 24.4336C14.7251 24.664 15.4326 24.664 16.0805 24.4336L28.033 20.1838C28.811 19.9072 29.6659 20.3137 29.9425 21.0916C30.2191 21.8696 29.8127 22.7245 29.0347 23.0011L17.0822 27.2509C15.7864 27.7116 14.3713 27.7116 13.0755 27.2509L1.12299 23.0011C0.345032 22.7245 -0.061392 21.8696 0.215215 21.0916Z" fill="#F26B35"/>
</svg>
