<svg width="12" height="15" viewBox="0 0 12 15" fill="none" xmlns="http://www.w3.org/2000/svg">
<path d="M10.7899 9.54538C11.5471 8.60081 12 7.40182 12 6.09705C12 3.04991 9.52981 0.579712 6.48267 0.579712C3.43553 0.579712 0.965332 3.04991 0.965332 6.09705C0.965332 7.40182 1.41825 8.60081 2.17544 9.54538L2.17991 9.55094C2.17991 9.55094 4.09496 12.1149 5.57568 13.9279C6.04932 14.5078 6.91619 14.508 7.3901 13.9283C8.87556 12.1114 10.7931 9.54538 10.7931 9.54538H10.7899Z" fill="#02B8CF"/>
<path fill-rule="evenodd" clip-rule="evenodd" d="M6.48241 8.13321C7.62014 8.13321 8.54245 7.2109 8.54245 6.07317C8.54245 4.93544 7.62014 4.01312 6.48241 4.01312C5.34468 4.01312 4.42236 4.93544 4.42236 6.07317C4.42236 7.2109 5.34468 8.13321 6.48241 8.13321Z" fill="#C8F9FF"/>
</svg>
