<svg width="21" height="25" viewBox="0 0 21 25" fill="none" xmlns="http://www.w3.org/2000/svg">
<path d="M14.8825 4.25195V8.76986C14.8825 11.1617 12.8893 13.1549 10.4975 13.1549C8.10566 13.1549 6.24535 11.1617 6.24535 8.76986V4.25195C2.52471 5.97939 0 9.70002 0 13.9522C0 19.7989 4.78367 24.4497 10.4975 24.4497C16.2113 24.4497 20.995 19.666 20.995 13.9522C21.1279 9.70002 18.6032 5.97939 14.8825 4.25195Z" fill="#7B9CAF"/>
<path d="M10.4974 11.2948C8.90289 11.2948 7.70697 9.96598 7.70697 8.5043V2.79047C7.70697 1.3288 9.03577 0 10.4974 0C12.092 0 13.2879 1.3288 13.2879 2.79047V8.37142C13.4208 9.96598 12.092 11.2948 10.4974 11.2948Z" fill="#B1D5EA"/>
</svg>
