<svg width="32" height="32" viewBox="0 0 32 32" fill="none" xmlns="http://www.w3.org/2000/svg">
<path d="M11.4999 31.725C14.0299 31.725 16.0999 29.655 16.0999 27.125H6.8999C6.8999 29.655 8.9699 31.725 11.4999 31.725Z" fill="#B1D5EA"/>
<path d="M21.39 25.4H1.61C0.69 25.4 0 24.71 0 23.79C0 23.33 0.23 22.985 0.46 22.64L1.61 21.49C2.07 21.03 2.3 20.455 2.3 19.88V16.2C2.3 11.14 6.44 7 11.5 7C16.56 7 20.7 11.14 20.7 16.2V19.88C20.7 20.455 20.93 21.03 21.39 21.49L22.54 22.64C22.885 22.985 23 23.33 23 23.79C23 24.71 22.31 25.4 21.39 25.4Z" fill="#7B9CAF"/>
<ellipse cx="21.4253" cy="10.4343" rx="10.4253" ry="10.4343" fill="#DA164E"/>
<path d="M17.9672 14.2175H19.3221V6.24032H18.0241V7.19758C18.0241 7.58505 17.9899 7.61924 17.6028 7.61924H15.9062V8.64487H17.9672V14.2175Z" fill="white"/>
<path d="M20.7715 14.2175H26.7379V13.1691H22.1607C22.1948 12.246 22.6503 11.8244 24.1305 11.152C25.4171 10.5822 26.7607 10.0922 26.7607 8.54231C26.7607 7.06083 25.5765 6.13776 23.8344 6.13776C21.9899 6.13776 20.8171 7.1406 20.7715 8.89559L22.2062 8.88419C22.2517 7.80157 22.878 7.18619 23.8686 7.18619C24.7795 7.18619 25.3716 7.74459 25.3716 8.54231C25.3716 9.49957 24.4265 9.83006 23.6864 10.1605C21.4092 11.1634 20.6577 11.8699 20.7715 14.2289V14.2175Z" fill="white"/>
</svg>
