<svg width="17" height="16" viewBox="0 0 17 16" fill="none" xmlns="http://www.w3.org/2000/svg">
<path fill-rule="evenodd" clip-rule="evenodd" d="M2.01695 4.32202C0.864407 4.32202 0 5.25846 0 6.411V13.3263C0 14.4788 0.864407 15.4152 2.01695 15.4152H14.9831C16.0636 15.4152 17 14.4788 17 13.3263V6.411C17 5.25846 16.1356 4.32202 14.9831 4.32202H2.01695ZM7.13136 9.94067C7.13136 9.22033 7.70763 8.64406 8.42797 8.64406C9.1483 8.64406 9.72458 9.22033 9.72458 9.94067C9.72458 10.661 9.1483 11.2373 8.42797 11.2373C7.70763 11.2373 7.13136 10.589 7.13136 9.94067ZM8.5 7.77965C7.27542 7.77965 6.33898 8.71609 6.33898 9.94067C6.33898 11.1652 7.27542 12.1017 8.5 12.1017C9.72458 12.1017 10.661 11.1652 10.661 9.94067C10.661 8.71609 9.65254 7.77965 8.5 7.77965Z" fill="#02B8CF"/>
<path fill-rule="evenodd" clip-rule="evenodd" d="M1.44043 2.7374C1.44043 2.37723 1.65653 2.16113 2.0167 2.16113H14.9828C15.2709 2.16113 15.5591 2.37723 15.5591 2.7374C15.5591 3.09757 15.343 3.31368 14.9828 3.31368H2.0167C1.65653 3.24164 1.44043 3.02554 1.44043 2.7374Z" fill="#F26B35"/>
<path fill-rule="evenodd" clip-rule="evenodd" d="M2.88135 0.576271C2.88135 0.216102 3.09745 0 3.45762 0H13.5424C13.8305 0 14.1186 0.216102 14.1186 0.576271C14.1186 0.864407 13.9025 1.15254 13.5424 1.15254H3.45762C3.09745 1.08051 2.88135 0.864407 2.88135 0.576271Z" fill="#F26B35"/>
</svg>
