<svg width="23" height="25" viewBox="0 0 23 25" fill="none" xmlns="http://www.w3.org/2000/svg">
<path opacity="0.16" d="M1.5 21.1226C1.5 19.7718 2.007 18.4816 2.90122 17.5346C3.79452 16.5886 4.99977 16.0629 6.25 16.0629H16.75C18.0002 16.0629 19.2055 16.5886 20.0988 17.5346C20.993 18.4816 21.5 19.7718 21.5 21.1226C21.5 21.7362 21.2696 22.3193 20.8676 22.745C20.4666 23.1696 19.929 23.4025 19.375 23.4025H3.625C3.07096 23.4025 2.53339 23.1696 2.13238 22.745C1.73044 22.3193 1.5 21.7362 1.5 21.1226Z" fill="#02B8CF" stroke="#02B8CF"/>
<path d="M1 21.1226C1 19.6481 1.55312 18.234 2.53769 17.1913C3.52226 16.1487 4.85761 15.5629 6.25 15.5629H16.75C18.1424 15.5629 19.4777 16.1487 20.4623 17.1913C21.4469 18.234 22 19.6481 22 21.1226C22 21.8599 21.7234 22.5669 21.2312 23.0883C20.7389 23.6096 20.0712 23.9025 19.375 23.9025H3.625C2.92881 23.9025 2.26113 23.6096 1.76884 23.0883C1.27656 22.5669 1 21.8599 1 21.1226Z" fill="#7B9CAF" stroke="#7B9CAF" stroke-width="2" stroke-linejoin="round"/>
<path d="M11.5 10.0033C13.6746 10.0033 15.4375 8.13639 15.4375 5.8335C15.4375 3.53061 13.6746 1.66374 11.5 1.66374C9.32538 1.66374 7.5625 3.53061 7.5625 5.8335C7.5625 8.13639 9.32538 10.0033 11.5 10.0033Z" fill="#7B9CAF" stroke="#B1D5EA" stroke-width="2"/>
</svg>
