<svg width="20" height="21" viewBox="0 0 20 21" fill="none" xmlns="http://www.w3.org/2000/svg">
<path d="M1 11.9001V18.0001C1 19.7001 2.3 21.0001 4 21.0001H16C17.7 21.0001 19 19.7001 19 18.0001V11.9001C18.7 12.0001 18.3 12.0001 18 12.0001H2C1.7 12.0001 1.3 12.0001 1 11.9001Z" fill="#0593A5"/>
<path d="M0 7.80005C0 6.70005 0.9 5.80005 2 5.80005H18C19.1 5.80005 20 6.70005 20 7.80005V8.80005C20 9.90005 19.1 10.8 18 10.8H2C0.9 10.8 0 9.90005 0 8.80005V7.80005Z" fill="#0593A5"/>
<path fill-rule="evenodd" clip-rule="evenodd" d="M10 2.5L8.8 1C8.3 0.4 7.5 0 6.7 0H6.5C5.1 0 4 1.1 4 2.5C4 3.9 5.1 5 6.5 5H9V10.8H11V5H13.5C14.9 5 16 3.9 16 2.5C16 1.1 14.9 0 13.5 0H13.3C12.5 0 11.7 0.4 11.2 1L10 2.5ZM7.8 3L7.2 2.3C7.1 2.1 6.9 2 6.7 2H6.5C6.2 2 6 2.2 6 2.5C6 2.8 6.2 3 6.5 3H7.8ZM12.2 3L12.8 2.3C12.9 2.1 13.1 2 13.3 2H13.5C13.8 2 14 2.2 14 2.5C14 2.8 13.8 3 13.5 3H12.2Z" fill="#F26B35"/>
</svg>
