<svg width="16" height="13" viewBox="0 0 16 13" fill="none" xmlns="http://www.w3.org/2000/svg">
<path fill-rule="evenodd" clip-rule="evenodd" d="M1.03349e-08 6.50003C1.60427e-08 6.02139 0.38802 5.63337 0.866667 5.63337L14.3 5.63337C14.7786 5.63337 15.1667 6.02139 15.1667 6.50003C15.1667 6.97868 14.7786 7.3667 14.3 7.3667L0.866667 7.3667C0.38802 7.3667 4.62709e-09 6.97868 1.03349e-08 6.50003Z" fill="white" fill-opacity="0.57"/>
<path fill-rule="evenodd" clip-rule="evenodd" d="M8.92034 12.7462C8.58189 12.4077 8.58189 11.859 8.92034 11.5205L13.9409 6.5L8.92034 1.47949C8.58189 1.14104 8.58189 0.592295 8.92034 0.25384C9.2588 -0.0846138 9.80754 -0.0846138 10.146 0.25384L15.1665 5.27435C15.8434 5.95126 15.8434 7.04874 15.1665 7.72565L10.146 12.7462C9.80754 13.0846 9.2588 13.0846 8.92034 12.7462Z" fill="white"/>
</svg>
