<svg width="19" height="20" viewBox="0 0 19 20" fill="none" xmlns="http://www.w3.org/2000/svg">
<path d="M18.1043 4.34502C18.0137 3.89242 17.6517 3.62085 17.1991 3.62085H0.905213C0.452607 3.62085 0.0905213 3.89242 0 4.34502C0.0905213 3.8019 0.271564 3.34929 0.724171 2.89668L2.80616 0.814692C3.34929 0.271564 4.07346 0 4.70711 0H13.3066C14.0308 0 14.755 0.271564 15.2076 0.814692L17.2896 2.89668C17.8327 3.34929 18.0137 3.8019 18.1043 4.34502Z" fill="#B1D5EA"/>
<path d="M17.1991 4.6167H0.905213C0.362085 4.6167 0 4.97878 0 5.52191V16.3845C0 17.9233 1.17678 19.1001 2.71564 19.1001H15.3886C16.9275 19.1001 18.1043 17.9233 18.1043 16.3845V5.52191C18.1043 5.06931 17.7422 4.6167 17.1991 4.6167ZM11.9488 13.3973L10.3194 15.0267C9.59526 15.7508 8.509 15.7508 7.78483 15.0267L6.15545 13.3973C5.79337 13.0352 5.79337 12.4921 6.15545 12.13C6.51754 11.7679 7.06066 11.7679 7.42275 12.13L8.14692 12.8541V9.14277C8.14692 8.59964 8.509 8.23755 9.05213 8.23755C9.59526 8.23755 9.95735 8.59964 9.95735 9.14277V12.8541L10.6815 12.13C11.0436 11.7679 11.5867 11.7679 11.9488 12.13C12.3109 12.4921 12.3109 13.0352 11.9488 13.3973Z" fill="#7B9CAF"/>
</svg>
