<svg width="20" height="20" viewBox="0 0 20 20" fill="none" xmlns="http://www.w3.org/2000/svg">
<path d="M20 5C20 5.3 19.9 5.7 19.8 6C19.4 4.8 18.3 4 17 4H3C1.7 4 0.6 4.8 0.2 6C0.1 5.7 0 5.3 0 5V3C0 1.3 1.3 0 3 0H5.8C6.6 0 7.4 0.3 7.9 0.9L9 2H17C17.8 2 18.6 2.3 19.1 2.9C19.6 3.5 20 4.2 20 5Z" fill="#F26B35"/>
<path d="M13.1 10.6999C12.7 11.0999 12.4 11.6999 12.4 12.3999C12.4 13.6999 13.5 14.7999 14.8 14.7999H20V16.3999C20 18.0999 18.7 19.3999 17 19.3999H3C1.3 19.3999 0 18.0999 0 16.3999V8.3999C0 6.6999 1.3 5.3999 3 5.3999H17C18.7 5.3999 20 6.6999 20 8.3999V9.9999H14.8C14.1 9.9999 13.5 10.1999 13.1 10.6999Z" fill="#02B8CF"/>
<path d="M15 13.7001C15.7179 13.7001 16.3 13.1181 16.3 12.4001C16.3 11.6821 15.7179 11.1001 15 11.1001C14.282 11.1001 13.7 11.6821 13.7 12.4001C13.7 13.1181 14.282 13.7001 15 13.7001Z" fill="#02B8CF"/>
</svg>
