<svg width="18" height="18" viewBox="0 0 18 18" fill="none" xmlns="http://www.w3.org/2000/svg">
<path d="M17.5568 5.07877C17.5568 5.33547 17.4712 5.67773 17.3856 5.93444C17.0434 4.90763 16.1021 4.2231 14.9898 4.2231H3.01037C1.898 4.2231 0.956761 4.90763 0.614493 5.93444C0.528926 5.67773 0.443359 5.33547 0.443359 5.07877V3.36743C0.443359 1.91279 1.55573 0.800415 3.01037 0.800415H5.40625C6.09078 0.800415 6.77532 1.05712 7.20315 1.57052L8.14439 2.51176H14.9898C15.6743 2.51176 16.3588 2.76846 16.7867 3.28186C17.2145 3.79526 17.5568 4.39423 17.5568 5.07877Z" fill="#99D3F3"/>
<path d="M11.6526 9.95607C11.3104 10.2983 11.0537 10.8117 11.0537 11.4107C11.0537 12.5231 11.9949 13.4643 13.1073 13.4643H17.5568V14.8334C17.5568 16.288 16.4444 17.4004 14.9898 17.4004H3.01037C1.55573 17.4004 0.443359 16.288 0.443359 14.8334V7.98803C0.443359 6.53339 1.55573 5.42102 3.01037 5.42102H14.9898C16.4444 5.42102 17.5568 6.53339 17.5568 7.98803V9.3571H13.1073C12.5083 9.3571 11.9949 9.52824 11.6526 9.95607Z" fill="#0A5A87"/>
<path d="M13.2784 12.5233C13.8927 12.5233 14.3908 12.0253 14.3908 11.411C14.3908 10.7966 13.8927 10.2986 13.2784 10.2986C12.664 10.2986 12.166 10.7966 12.166 11.411C12.166 12.0253 12.664 12.5233 13.2784 12.5233Z" fill="#0A5A87"/>
</svg>
