<svg width="21" height="21" viewBox="0 0 21 21" fill="none" xmlns="http://www.w3.org/2000/svg">
<path d="M20.4434 5.80029C20.4434 6.10029 20.3434 6.50029 20.2434 6.80029C19.8434 5.60029 18.7434 4.80029 17.4434 4.80029H3.44336C2.14336 4.80029 1.04336 5.60029 0.643359 6.80029C0.543359 6.50029 0.443359 6.10029 0.443359 5.80029V3.80029C0.443359 2.10029 1.74336 0.800293 3.44336 0.800293H6.24336C7.04336 0.800293 7.84336 1.10029 8.34336 1.70029L9.44336 2.80029H17.4434C18.2434 2.80029 19.0434 3.10029 19.5434 3.70029C20.0434 4.30029 20.4434 5.00029 20.4434 5.80029Z" fill="#B1D5EA"/>
<path d="M13.5434 11.5003C13.1434 11.9003 12.8434 12.5003 12.8434 13.2003C12.8434 14.5003 13.9434 15.6003 15.2434 15.6003H20.4434V17.2003C20.4434 18.9003 19.1434 20.2003 17.4434 20.2003H3.44336C1.74336 20.2003 0.443359 18.9003 0.443359 17.2003V9.20028C0.443359 7.50028 1.74336 6.20028 3.44336 6.20028H17.4434C19.1434 6.20028 20.4434 7.50028 20.4434 9.20028V10.8003H15.2434C14.5434 10.8003 13.9434 11.0003 13.5434 11.5003Z" fill="#7B9CAF"/>
<path d="M15.4426 14.5005C16.1605 14.5005 16.7426 13.9185 16.7426 13.2005C16.7426 12.4825 16.1605 11.9005 15.4426 11.9005C14.7246 11.9005 14.1426 12.4825 14.1426 13.2005C14.1426 13.9185 14.7246 14.5005 15.4426 14.5005Z" fill="#7B9CAF"/>
</svg>
