<svg width="21" height="21" viewBox="0 0 21 21" fill="none" xmlns="http://www.w3.org/2000/svg">
<path d="M20.4434 5.80029C20.4434 6.10029 20.3434 6.50029 20.2434 6.80029C19.8434 5.60029 18.7434 4.80029 17.4434 4.80029H3.44336C2.14336 4.80029 1.04336 5.60029 0.643359 6.80029C0.543359 6.50029 0.443359 6.10029 0.443359 5.80029V3.80029C0.443359 2.10029 1.74336 0.800293 3.44336 0.800293H6.24336C7.04336 0.800293 7.84336 1.10029 8.34336 1.70029L9.44336 2.80029H17.4434C18.2434 2.80029 19.0434 3.10029 19.5434 3.70029C20.0434 4.30029 20.4434 5.00029 20.4434 5.80029Z" fill="#F26B35"/>
<path d="M13.5433 11.5002C13.1433 11.9002 12.8433 12.5002 12.8433 13.2002C12.8433 14.5002 13.9433 15.6002 15.2433 15.6002H20.4433V17.2002C20.4433 18.9002 19.1433 20.2002 17.4433 20.2002H3.4433C1.7433 20.2002 0.443298 18.9002 0.443298 17.2002V9.20019C0.443298 7.50019 1.7433 6.2002 3.4433 6.2002H17.4433C19.1433 6.2002 20.4433 7.50019 20.4433 9.20019V10.8002H15.2433C14.5433 10.8002 13.9433 11.0002 13.5433 11.5002Z" fill="#0593A5"/>
<path d="M15.4432 14.5004C16.1612 14.5004 16.7432 13.9184 16.7432 13.2004C16.7432 12.4824 16.1612 11.9004 15.4432 11.9004C14.7252 11.9004 14.1432 12.4824 14.1432 13.2004C14.1432 13.9184 14.7252 14.5004 15.4432 14.5004Z" fill="#0593A5"/>
</svg>
