<svg width="73" height="72" viewBox="0 0 73 72" fill="none" xmlns="http://www.w3.org/2000/svg">
<path opacity="0.4" d="M43.2852 47.9941H28.2852" stroke="#0593A5" stroke-width="4" stroke-miterlimit="10" stroke-linecap="round" stroke-linejoin="round"/>
<path d="M38.48 7.55441L38.39 7.76441L29.69 27.9544H21.14C19.1 27.9544 17.15 28.3744 15.38 29.1244L20.63 16.5844L20.75 16.2844L20.96 15.8044C21.02 15.6244 21.08 15.4444 21.17 15.2944C25.1 6.20441 29.54 4.13441 38.48 7.55441Z" stroke="#0593A5" stroke-width="4" stroke-linecap="round" stroke-linejoin="round"/>
<path d="M54.65 28.5544C53.3 28.1344 51.86 27.9544 50.42 27.9544H29.69L38.39 7.76444L38.48 7.55444C38.93 7.70444 39.35 7.91444 39.8 8.09444L46.43 10.8844C50.12 12.4144 52.7 14.0044 54.26 15.9244C54.56 16.2844 54.8 16.6144 55.01 17.0044C55.28 17.4244 55.49 17.8444 55.61 18.2944C55.73 18.5644 55.82 18.8344 55.88 19.0744C56.69 21.5944 56.21 24.6844 54.65 28.5544Z" stroke="#0593A5" stroke-width="4" stroke-linecap="round" stroke-linejoin="round"/>
<path d="M65.0652 42.5951V48.4451C65.0652 49.0451 65.0352 49.6451 65.0052 50.2451C64.4352 60.7151 58.5852 65.9951 47.4852 65.9951H24.0852C23.3652 65.9951 22.6452 65.9351 21.9552 65.8451C12.4152 65.2151 7.31516 60.1151 6.68516 50.5751C6.59516 49.8851 6.53516 49.1651 6.53516 48.4451V42.5951C6.53516 36.5651 10.1952 31.3751 15.4152 29.1251C17.2152 28.3751 19.1352 27.9551 21.1752 27.9551H50.4552C51.9252 27.9551 53.3652 28.1651 54.6852 28.5551C60.6552 30.3851 65.0652 35.9651 65.0652 42.5951Z" stroke="url(#paint0_linear_4133_489)" stroke-width="4" stroke-linecap="round" stroke-linejoin="round"/>
<path opacity="0.4" d="M20.63 16.5845L15.38 29.1245C10.16 31.3745 6.5 36.5645 6.5 42.5945V33.8045C6.5 25.2845 12.56 18.1745 20.63 16.5845Z" stroke="#0593A5" stroke-width="4" stroke-linecap="round" stroke-linejoin="round"/>
<path opacity="0.4" d="M65.0558 33.803V42.593C65.0558 35.993 60.6758 30.383 54.6758 28.583C56.2358 24.683 56.6858 21.623 55.9358 19.073C55.8758 18.803 55.7858 18.533 55.6658 18.293C61.2458 21.173 65.0558 27.083 65.0558 33.803Z" stroke="#0593A5" stroke-width="4" stroke-linecap="round" stroke-linejoin="round"/>
<defs>
<linearGradient id="paint0_linear_4133_489" x1="6.53516" y1="46.6633" x2="56.4332" y2="79.4316" gradientUnits="userSpaceOnUse">
<stop stop-color="#FF8F63"/>
<stop offset="1" stop-color="#F26B35"/>
</linearGradient>
</defs>
</svg>
