<svg width="40" height="40" viewBox="0 0 40 40" fill="none" xmlns="http://www.w3.org/2000/svg">
<path d="M3.33332 37.9167C2.99999 37.9167 2.68327 37.7833 2.44994 37.55C2.13327 37.2333 2.00002 36.7666 2.11669 36.3333L4.2167 28.4833C2.8167 25.8833 2.08332 22.95 2.08332 19.9833C2.08332 10.1 10.1167 2.06665 20 2.06665C29.8833 2.06665 37.9167 10.1 37.9167 19.9833C37.9167 29.8667 29.8833 37.9 20 37.9C16.9833 37.9 14.0334 37.15 11.4 35.7167L3.66667 37.8667C3.55001 37.9 3.44999 37.9167 3.33332 37.9167ZM11.5667 33.1333C11.7833 33.1333 12 33.2 12.2 33.3C14.55 34.6834 17.25 35.4167 20 35.4167C28.5 35.4167 35.4167 28.5 35.4167 20C35.4167 11.5 28.5 4.58333 20 4.58333C11.5 4.58333 4.58332 11.5 4.58332 20C4.58332 22.7167 5.29997 25.3667 6.64997 27.7C6.81664 27.9833 6.86667 28.3333 6.78333 28.65L5.11667 34.8833L11.25 33.1833C11.35 33.15 11.4667 33.1333 11.5667 33.1333Z" fill="#3A3A3A"/>
<path d="M24.5667 29.6001C23.5334 29.6001 22.4667 29.3667 21.35 28.8834C20.3 28.4334 19.25 27.8334 18.2334 27.0834C17.2334 26.3501 16.2501 25.5167 15.3501 24.6167C14.4501 23.7001 13.6167 22.7334 12.8833 21.7334C12.1333 20.6834 11.5333 19.6501 11.1 18.6334C10.6333 17.5334 10.4 16.4501 10.4 15.4167C10.4 14.6834 10.5333 13.9834 10.7833 13.3334C11.05 12.6501 11.4833 12.0334 12.05 11.5001C13.1167 10.4501 14.6501 10.0668 15.8667 10.6501C16.2834 10.8334 16.6334 11.1334 16.9001 11.5334L18.8334 14.25C19.0334 14.5167 19.1834 14.8 19.3001 15.0834C19.4334 15.4167 19.5167 15.7501 19.5167 16.0668C19.5167 16.5001 19.4 16.9334 19.1667 17.3168C19.0167 17.5668 18.8 17.8668 18.5167 18.1501L18.3 18.3834C18.4 18.5167 18.5167 18.6834 18.7 18.8834C19.05 19.2834 19.4333 19.7167 19.85 20.1334C20.2667 20.5334 20.6833 20.9334 21.1 21.2834C21.3 21.4501 21.4667 21.5834 21.6001 21.6667L21.8333 21.4334C22.1333 21.1334 22.4334 20.9001 22.7334 20.7501C23.2834 20.4001 24.1334 20.3167 24.8834 20.6334C25.15 20.7334 25.4167 20.8834 25.7 21.0834L28.4834 23.05C28.8668 23.3167 29.1667 23.6834 29.3667 24.1001C29.5334 24.5167 29.6001 24.8834 29.6001 25.2667C29.6001 25.7667 29.4834 26.2501 29.2667 26.7167C29.05 27.1501 28.8 27.5334 28.5 27.8834C27.9667 28.4668 27.3501 28.9001 26.6834 29.1834C26.0167 29.4668 25.3 29.6001 24.5667 29.6001ZM14.65 12.9001C14.55 12.9001 14.2168 12.9001 13.8001 13.3167C13.4834 13.6167 13.2667 13.9334 13.1167 14.2834C12.9667 14.6334 12.9 15.0334 12.9 15.4334C12.9 16.1334 13.0667 16.8834 13.4 17.6834C13.75 18.5167 14.2667 19.4001 14.9 20.2834C15.55 21.1668 16.2834 22.0501 17.1001 22.8667C17.9167 23.6667 18.7834 24.4167 19.6834 25.0834C20.55 25.7167 21.4334 26.2167 22.3167 26.6001C23.5834 27.1501 24.75 27.2834 25.7 26.8834C26.0333 26.7501 26.3333 26.5168 26.6333 26.2168C26.7833 26.0501 26.9001 25.8834 27.0001 25.6667C27.0501 25.5501 27.0834 25.4167 27.0834 25.3001C27.0834 25.2667 27.0833 25.2167 27.0333 25.1167L24.25 23.1834C24.1334 23.1001 24.0167 23.0334 23.9167 23C23.85 23.0334 23.7501 23.0834 23.5667 23.2667L22.9334 23.9001C22.4501 24.3834 21.6834 24.5167 21.0667 24.3L20.7667 24.1667C20.3834 23.9667 19.95 23.6668 19.4667 23.2501C19 22.8501 18.5501 22.4334 18.0668 21.9667C17.6001 21.4834 17.1834 21.0334 16.7834 20.5667C16.3501 20.0501 16.0501 19.6334 15.8501 19.2834L15.6667 18.8501C15.6167 18.6834 15.6 18.5001 15.6 18.3334C15.6 17.8667 15.7667 17.4501 16.0834 17.1167L16.7168 16.4667C16.9001 16.2834 16.9667 16.1834 17.0001 16.1168C16.9501 16.0001 16.8834 15.9001 16.8001 15.7834L14.85 13.0334L14.65 12.9001Z" fill="#3A3A3A"/>
</svg>
